<svg id="Graphic_Elements" data-name="Graphic Elements" xmlns="http://www.w3.org/2000/svg" viewBox="0 0 1200 1200"><circle cx="600" cy="600" r="538.56" style="fill:#2c89a0"/><circle cx="599.99" cy="600" r="528.19" style="fill:#7cb7ed"/><path d="M568.26,1062.08c-45.42,25.87-142.37,40.15-142.37,40.15,168.61,57.39,334.85,4.45,334.85,4.45S613.69,1036.22,568.26,1062.08Z" style="fill:#fff"/><path d="M1101.58,487a11.3,11.3,0,0,0-7.49-.38l6.52-30.06a11.66,11.66,0,0,0,.26-2.43V425.81a11.39,11.39,0,0,0-1.4-5.48l-13-23.83a11.44,11.44,0,0,0,10.16-15.73c-38.49-95-120.42-169.71-182.36-215.69C847.5,115.52,790.55,88.54,788.16,87.42a11.44,11.44,0,0,0-16.28,11.13L774.51,137l-8,29.55-24.82-2.75a11.43,11.43,0,0,0-11.18,5.68l-20.21,35.26L690,214.25a11.43,11.43,0,0,0-1.61,19.8c8.49,5.81,17.29,13.8,20.68,18.52-5.55,2.55-18,5.26-29.33,6.22a11.42,11.42,0,0,0-10.33,9.59c-.82,5.1-7.13,50.06,22.87,57a41.11,41.11,0,0,0,4.21.75c-3.9,5.2-5.84,13.23-8.25,23.15-1.12,4.65-2.85,11.81-4.41,15.67-8.11,1.43-23.31,12.39-58.44,69a11.49,11.49,0,0,0-.86,10.37,196.47,196.47,0,0,1,11.73,59c1.12,25.73,28.15,54.7,54.46,72,12.35,8.12,43.67,26,67.93,16.78,24.5-9.33,68.82-3.82,92.62-.88,5.22.66,9.66,1.2,13.3,1.55.72,2.52,1.14,8,1.46,12.2,1,13.77,2.46,32.65,13.58,54,12,23,9.91,41.36,7.31,64.59-1.35,12-2.87,25.49-2.31,40.58,1.54,41.36,4.56,129,4.71,133.41a11.44,11.44,0,0,0,11.44,11.3H926A11.39,11.39,0,0,0,932.3,907l33-22a11.5,11.5,0,0,0,1.93-1.63l33-34.58a12.55,12.55,0,0,0,.88-1l23.58-31.48a11.47,11.47,0,0,0,2.28-6.86V794.76l18.9-13.86a11.06,11.06,0,0,0,1.32-1.13l23.58-23.57a11.44,11.44,0,0,0,3.35-8.1l0-47.85,3-39.46,16.7-50.09,14-32.57a11.44,11.44,0,0,0,.92-4.51V497.57A11.41,11.41,0,0,0,1101.58,487ZM757.82,306.13c2.11-7.87,9.27-25.15,18-28.33,13.06-4.75,35.6-8.68,43.59-10l38.92,14.77c18.08,30.92,27.31,32.17,30.87,32.66a13.92,13.92,0,0,0,11.82-4c4.23-4.22,5.51-10,5-16.26,18.5,8.55,42.13,19.24,50.59,22,2.13,1.44,4.45,7.82,6.1,15.71L916.67,319a11.43,11.43,0,0,0-13.75,6.31l-8.21,18.51-50.35-18.61c2-6,2.75-13.05-.58-19.37-2.6-5-8.48-10.88-21.57-10.88-12.58,0-39.36,5.39-64.41,11.3A.29.29,0,0,0,757.82,306.13Z" style="fill:#0fb55e"/><path d="M537.34,772.69c-9.23-29.51-51.76-31.64-63.84-31.64h-.07l-71-29.87C399,699.51,389.09,675.31,366.13,672c-12.82-1.83-21.75,1.43-27.63,3.57-.79.3-1.75.65-2.55.91v0l-1.17-1.57c-10.16-13.6-25.5-34.17-54.67-36-16.12-1-37.92-12.35-48-18.41-4.46-8.33-15.37-17.82-35.41-15.67-3.34-6.05-7.62-18.23-3.39-36.85a11.64,11.64,0,0,0,.25-3.48c-.12-1.27-1.33-12.61-11.32-19.2-5.92-3.91-13.13-5.13-21.56-3.61-10.51-10.76-17.32-15.46-21.83-17.52-3.7-11.89-5.52-50.4,13.44-68.3.27-.27.57-.58.82-.87.77-.88,17.47-19.73,36.23-13.07-.17,10.51.13,29.18,4,40.68,3.57,10.69,11.55,11.27,14,11.22,6.47-.18,14.05-2.84,22.07-32.27a11.05,11.05,0,0,0,.39-2.6l1.34-37.29a177.25,177.25,0,0,0,34.23-23.82c9.71-8.82,13.46-18.65,16.77-27.33,3.58-9.38,6.41-16.78,16.46-23.48,6.78-4.52,10.27-5,11.42-5.06a11.44,11.44,0,0,0,22-3.79l.93-16h11.22a11.3,11.3,0,0,0,4.62-1l53.45-23.58a11.45,11.45,0,0,0-5.31-21.89,49.11,49.11,0,0,1-10.45-.71l49.54-26.51a11.44,11.44,0,0,0,6-10.08V218.08c0-.41,0-.82-.07-1.24l-4.63-42.44a11.44,11.44,0,0,0-20.14-6.11l-.73.88a11.46,11.46,0,0,0-8-4.88l-29.87-3.82a10.14,10.14,0,0,0-1.46-.1h-11a11.48,11.48,0,0,0-4.82,1.06l-25.15,11.7a11.42,11.42,0,0,0-6.57,9.23l-.91,9.11-15,6.68-1.44-1.45,4.46-5.75,10.63-11.3a9.68,9.68,0,0,0,.88-1l29.3-39.67a11.44,11.44,0,0,0-14.81-16.77c-8.1,4.53-199,113.5-256.28,308.56a10.66,10.66,0,0,0-.45,2.63c0,.6-3.18,60.93-4.73,82.58-1.89,26.63,19.38,50,20.3,51a11.41,11.41,0,0,0,8.4,3.68h9.55l3.41,8.53a11.46,11.46,0,0,0,7,6.6l13,4.33,3.41,2,3.11,8.08L155.44,622a11.42,11.42,0,0,0,8.53,8.06l9.13,2,5.36,9.64a11.41,11.41,0,0,0,7,5.48l-2.78,6.47a11.54,11.54,0,0,0-.9,3.79l-1.57,25.15a10.21,10.21,0,0,0,0,1.66l2.48,28.82-7.63,4.25a11.44,11.44,0,0,0-5.71,12l3.07,16.87,1.47,10.2v8.73l-.67.26a11.43,11.43,0,0,0-5,17.4l56.59,77a11.49,11.49,0,0,0,5.3,4l17.3,6.29a11.31,11.31,0,0,0,2.29.58l9.82,1.4,12,4.38,11.78,22.19s45.56,100.54,51.84,114.68C342.59,1030,407.36,1088,443.36,1088a32.15,32.15,0,0,0,3.44-.19,11.44,11.44,0,0,0,10.87-10.85,11.24,11.24,0,0,0-.14-2.51,11.45,11.45,0,0,0-2.72-5.71l-27.7-36,1.67-7.8H440a11.42,11.42,0,0,0,11.23-13.61L447.27,991l9.48-45.82,14.05-14.6c9.72-4.86,43.23-25.57,40.58-78.83C520.89,838.09,545.57,799.07,537.34,772.69Z" style="fill:#0fb55e"/><path d="M600,68.38c-131.55,0-240.25,57.68-240.25,57.68,82.32,39.42,130.14,6.56,130.14,6.56s29,60.36,83.58,37.37,132.21-26.75,132.21-26.75c100.6,27.87,165.52,0,165.52,0S774.65,68.38,600,68.38Z" style="fill:#fff"/><g id="path3655"><path d="M600,1150C296.73,1150,50,903.27,50,600S296.73,50,600,50s550,246.73,550,550S903.27,1150,600,1150ZM600,72.88C309.35,72.88,72.89,309.34,72.89,600S309.35,1127.12,600,1127.12,1127.11,890.65,1127.11,600,890.65,72.88,600,72.88Z" style="fill:#2c89a0"/></g><g id="path4144"><ellipse cx="351.04" cy="522.99" rx="52.97" ry="50.45"/></g><g id="ellipse4146"><ellipse cx="859.55" cy="522.99" rx="52.97" ry="50.45"/></g><g id="path4167"><path d="M603.88,699.22c-82.78,0-125.25-44.36-130.65-88.78a10.6,10.6,0,1,1,21-2.56c6,49.06,62.19,70.93,112.23,70.14,49.24-.6,104.29-22.74,108.85-69.88a10.59,10.59,0,0,1,21.08,2c-5.8,60.14-71.29,88.31-129.67,89C605.8,699.22,604.83,699.22,603.88,699.22Z"/></g><g id="path4169"><ellipse cx="249.74" cy="648.57" rx="41.6" ry="21.31" style="fill:#faa"/></g><g id="ellipse4171"><ellipse cx="913.63" cy="648.57" rx="41.6" ry="21.31" style="fill:#faa"/></g></svg>