<?xml version="1.0" encoding="utf-8"?>
<svg viewBox="0 0 500 500" xmlns="http://www.w3.org/2000/svg">
  <circle cx="600" cy="600" r="538.56" style="fill: rgb(44, 137, 160);" transform="matrix(0.397585, 0, 0, 0.37673, 11.87383, -1.181726)"/>
  <circle cx="599.99" cy="600" r="528.19" style="fill: rgb(124, 183, 237);" transform="matrix(0.397585, 0, 0, 0.37673, 11.87383, -1.181726)"/>
  <path d="M 237.807 398.938 C 219.749 408.682 181.203 414.061 181.203 414.061 C 248.24 435.684 314.334 415.739 314.334 415.739 C 314.334 415.739 255.87 389.193 237.807 398.938 Z" style="fill: rgb(255, 255, 255);"/>
  <path d="M 449.849 182.287 C 448.902 181.919 447.852 181.868 446.872 182.142 L 449.462 170.819 C 449.53 170.517 449.565 170.21 449.566 169.902 L 449.566 159.233 C 449.566 158.513 449.373 157.802 449.008 157.171 L 443.838 148.195 C 446.989 148.077 449.062 145.034 447.881 142.265 C 432.578 106.476 400.003 78.331 375.377 61.009 C 348.829 42.339 326.187 32.173 325.237 31.753 C 322.098 30.355 318.528 32.666 318.764 35.946 L 319.807 50.431 L 316.63 61.563 L 306.761 60.527 C 304.961 60.337 303.215 61.179 302.315 62.668 L 294.28 75.951 L 286.21 79.534 C 283.039 80.935 282.659 85.062 285.523 86.963 C 285.539 86.973 285.553 86.984 285.569 86.993 C 288.946 89.181 292.443 92.192 293.792 93.971 C 291.584 94.93 286.635 95.95 282.128 96.313 C 280.047 96.477 278.35 97.968 278.024 99.927 C 277.697 101.846 275.187 118.784 287.116 121.399 C 287.668 121.522 288.228 121.616 288.79 121.681 C 287.24 123.642 286.468 126.666 285.509 130.404 C 285.065 132.155 284.376 134.852 283.757 136.305 C 280.533 136.847 274.49 140.974 260.52 162.301 C 259.756 163.476 259.629 164.927 260.18 166.208 C 262.928 173.346 264.501 180.842 264.844 188.435 C 265.288 198.128 276.034 209.041 286.496 215.559 C 291.407 218.619 303.858 225.355 313.503 221.882 C 323.246 218.366 340.865 220.443 350.328 221.549 C 352.405 221.797 354.169 222.002 355.617 222.134 C 355.903 223.082 356.068 225.148 356.195 226.728 C 356.594 231.918 357.173 239.03 361.596 247.073 C 366.367 255.737 365.536 262.653 364.503 271.406 C 363.964 275.927 363.36 281.009 363.584 286.693 C 364.195 302.275 365.396 335.292 365.456 336.954 C 365.486 339.314 367.515 341.21 370.005 341.21 L 380.041 341.21 C 380.929 341.217 381.801 340.974 382.544 340.514 L 395.666 332.226 C 395.943 332.048 396.2 331.841 396.431 331.611 L 409.553 318.585 C 409.677 318.463 409.792 318.338 409.904 318.207 L 419.277 306.347 C 419.864 305.602 420.184 304.695 420.184 303.765 L 420.184 298.229 L 427.697 293.007 C 427.885 292.879 428.061 292.736 428.223 292.582 L 437.598 283.703 C 438.452 282.892 438.93 281.794 438.93 280.651 L 438.93 262.623 L 440.123 247.759 L 446.762 228.888 L 452.33 216.618 C 452.571 216.08 452.695 215.503 452.695 214.919 L 452.695 186.269 C 452.689 184.516 451.566 182.939 449.849 182.287 Z M 313.174 114.148 C 314.012 111.183 316.858 104.674 320.331 103.476 C 325.521 101.686 334.484 100.205 337.659 99.708 L 353.134 105.271 C 360.323 116.92 363.993 117.391 365.408 117.574 C 367.138 117.803 368.88 117.245 370.108 116.067 C 371.789 114.479 372.298 112.301 372.094 109.942 C 379.452 113.163 388.846 117.191 392.209 118.229 C 393.055 118.775 393.979 121.177 394.635 124.149 L 376.331 118.997 C 374.136 118.368 371.791 119.387 370.863 121.373 L 367.6 128.345 L 347.581 121.335 C 348.376 119.075 348.674 116.419 347.349 114.038 C 346.316 112.153 343.978 109.939 338.773 109.939 C 333.771 109.939 323.123 111.97 313.165 114.195 C 313.171 114.18 313.174 114.164 313.174 114.148 Z" style="fill: rgb(15, 181, 94);"/>
  <path d="M 225.514 289.915 C 221.843 278.797 204.934 277.994 200.134 277.994 L 200.104 277.994 L 171.876 266.741 C 170.513 262.346 166.571 253.228 157.443 251.981 C 152.347 251.294 148.795 252.519 146.458 253.328 C 146.145 253.439 145.762 253.57 145.442 253.669 L 144.979 253.078 C 140.939 247.954 134.841 240.206 123.243 239.514 C 116.833 239.139 108.168 234.862 104.16 232.581 C 102.385 229.441 98.048 225.868 90.08 226.677 C 88.75 224.399 87.05 219.81 88.733 212.794 C 88.836 212.364 88.866 211.922 88.832 211.483 C 88.782 211.006 88.302 206.733 84.332 204.25 C 81.976 202.776 79.111 202.316 75.758 202.892 C 71.58 198.838 68.872 197.066 67.079 196.291 C 65.606 191.81 64.884 177.301 72.424 170.558 C 72.529 170.456 72.65 170.341 72.748 170.231 C 73.055 169.899 79.694 162.798 87.156 165.309 C 87.087 169.265 87.204 176.3 88.742 180.634 C 90.165 184.659 93.336 184.877 94.309 184.858 C 96.885 184.791 99.897 183.79 103.086 172.703 C 103.178 172.383 103.228 172.055 103.24 171.723 L 103.772 157.675 C 108.665 155.202 113.234 152.189 117.381 148.701 C 121.243 145.379 122.735 141.674 124.051 138.406 C 125.472 134.87 126.599 132.083 130.593 129.559 C 133.289 127.857 134.677 127.675 135.133 127.652 C 136.47 130.72 140.807 131.266 142.945 128.636 C 143.508 127.942 143.834 127.1 143.881 126.225 L 144.25 120.198 L 148.711 120.198 C 149.344 120.196 149.972 120.069 150.548 119.821 L 171.8 110.938 C 175.001 109.585 175.455 105.457 172.62 103.507 C 171.77 102.923 170.736 102.634 169.689 102.69 C 168.296 102.743 166.906 102.652 165.534 102.424 L 185.23 92.436 C 186.702 91.682 187.618 90.225 187.615 88.64 L 187.615 80.975 C 187.615 80.821 187.615 80.668 187.589 80.51 L 185.747 64.522 C 185.367 61.221 181.362 59.55 178.537 61.51 C 178.242 61.715 177.976 61.952 177.741 62.219 L 177.451 62.55 C 176.715 61.536 175.556 60.866 174.27 60.712 L 162.393 59.272 C 162.2 59.246 162.007 59.233 161.811 59.233 L 157.438 59.233 C 156.779 59.233 156.123 59.373 155.523 59.634 L 145.522 64.043 C 144.064 64.682 143.072 66.005 142.91 67.52 L 142.548 70.951 L 136.584 73.468 L 136.015 72.922 L 137.786 70.755 L 142.013 66.499 C 142.137 66.382 142.256 66.256 142.362 66.122 L 154.011 51.177 C 156.093 48.51 154.345 44.705 150.865 44.333 C 149.917 44.231 148.958 44.415 148.124 44.858 C 144.902 46.566 69.005 87.618 46.23 161.102 C 46.128 161.424 46.067 161.757 46.051 162.094 C 46.051 162.32 44.787 185.047 44.17 193.203 C 43.418 203.238 51.876 212.04 52.243 212.419 C 53.1 213.302 54.313 213.803 55.582 213.803 L 59.378 213.803 L 60.734 217.017 C 61.23 218.192 62.249 219.101 63.518 219.503 L 68.686 221.136 L 70.041 221.887 L 71.279 224.932 L 73.674 233.145 C 74.128 234.672 75.431 235.838 77.066 236.182 L 80.697 236.934 L 82.828 240.566 C 83.421 241.584 84.427 242.327 85.612 242.633 L 84.507 245.068 C 84.303 245.522 84.182 246.005 84.147 246.495 L 83.524 255.971 C 83.506 256.179 83.506 256.39 83.524 256.596 L 84.51 267.455 L 81.475 269.056 C 79.778 269.948 78.866 271.764 79.206 273.577 L 80.429 279.931 L 81.01 283.775 L 81.01 287.064 L 80.744 287.161 C 77.974 288.2 76.991 291.441 78.757 293.717 L 101.255 322.725 C 101.786 323.412 102.519 323.936 103.364 324.229 L 110.241 326.6 C 110.536 326.702 110.842 326.776 111.153 326.82 L 115.055 327.348 L 119.828 328.997 L 124.51 337.358 C 124.51 337.358 142.625 375.232 145.121 380.558 C 148.083 386.851 173.836 408.701 188.149 408.701 C 188.606 408.701 189.064 408.678 189.517 408.632 C 191.851 408.523 193.719 406.755 193.838 404.542 C 193.856 404.226 193.838 403.908 193.783 403.595 C 193.642 402.797 193.269 402.053 192.701 401.447 L 181.686 387.882 L 182.352 384.946 L 186.812 384.946 C 189.672 384.949 191.826 382.477 191.277 379.816 L 189.705 372.158 L 193.471 354.896 L 199.059 349.396 C 202.923 347.565 216.245 339.764 215.193 319.699 C 218.973 314.552 228.784 299.853 225.514 289.915 Z" style="fill: rgb(15, 181, 94);"/>
  <path d="M 250.426 24.581 C 198.126 24.581 154.905 46.31 154.905 46.31 C 187.636 61.161 206.649 48.78 206.649 48.78 C 206.649 48.78 218.18 71.52 239.877 62.859 C 261.578 54.197 292.443 52.781 292.443 52.781 C 332.441 63.279 358.253 52.781 358.253 52.781 C 358.253 52.781 319.866 24.581 250.426 24.581 Z" style="fill: rgb(255, 255, 255);"/>
  <g id="path3655" transform="matrix(0.397585, 0, 0, 0.37673, 11.87383, -1.181726)" style="">
    <path d="M600,1150C296.73,1150,50,903.27,50,600S296.73,50,600,50s550,246.73,550,550S903.27,1150,600,1150ZM600,72.88C309.35,72.88,72.89,309.34,72.89,600S309.35,1127.12,600,1127.12,1127.11,890.65,1127.11,600,890.65,72.88,600,72.88Z" style="fill:#2c89a0"/>
  </g>
  <g id="path4144" transform="matrix(0.397585, 0, 0, 0.37673, 11.87383, -1.181726)" style="">
    <ellipse cx="351.04" cy="522.99" rx="52.97" ry="50.45"/>
  </g>
  <g id="ellipse4146" transform="matrix(0.397585, 0, 0, 0.37673, 11.87383, -1.181726)" style="">
    <ellipse cx="859.55" cy="522.99" rx="52.97" ry="50.45"/>
  </g>
  <g id="path4167" transform="matrix(0.397585, 0, 0, -0.542057, 11.87383, 610.911499)" style="">
    <path d="M603.88,699.22c-82.78,0-125.25-44.36-130.65-88.78a10.6,10.6,0,1,1,21-2.56c6,49.06,62.19,70.93,112.23,70.14,49.24-.6,104.29-22.74,108.85-69.88a10.59,10.59,0,0,1,21.08,2c-5.8,60.14-71.29,88.31-129.67,89C605.8,699.22,604.83,699.22,603.88,699.22Z"/>
  </g>
  <g id="path4169" transform="matrix(0.397585, 0, 0, 0.37673, 11.87383, -1.181726)" style="">
    <ellipse cx="249.74" cy="648.57" rx="41.6" ry="21.31" style="fill:#faa"/>
  </g>
  <g id="ellipse4171" transform="matrix(0.397585, 0, 0, 0.37673, 11.87383, -1.181726)" style="">
    <ellipse cx="913.63" cy="648.57" rx="41.6" ry="21.31" style="fill:#faa"/>
  </g>
</svg>